<svg width="42" height="42" viewBox="0 0 42 42" fill="none" xmlns="http://www.w3.org/2000/svg">
<path d="M14.2548 11.3847C14.6459 11.3847 14.9935 11.2992 15.3412 11.171L17.3401 13.6924H25.1621L27.161 11.171C27.5086 11.2992 27.8563 11.3847 28.2474 11.3847C29.7683 11.3847 30.9851 10.1881 30.9851 8.69233C30.9851 7.19659 29.7683 6 28.2474 6C26.7264 6 25.5097 7.19659 25.5097 8.69233C25.5097 9.16242 25.6401 9.63251 25.8573 10.0171L24.293 11.983H18.1658L16.6014 10.0171C16.8186 9.63251 16.949 9.16242 16.949 8.69233C16.949 7.19659 15.7323 6 14.2113 6C12.6904 6 11.4736 7.19659 11.4736 8.69233C11.4736 10.1881 12.7338 11.3847 14.2548 11.3847ZM28.2039 7.70942C28.7688 7.70942 29.2034 8.13677 29.2034 8.69233C29.2034 9.24789 28.7688 9.67525 28.2039 9.67525C27.639 9.67525 27.2045 9.24789 27.2045 8.69233C27.2045 8.13677 27.639 7.70942 28.2039 7.70942ZM14.2548 7.70942C14.8197 7.70942 15.2542 8.13677 15.2542 8.69233C15.2542 9.24789 14.8197 9.67525 14.2548 9.67525C13.6899 9.67525 13.2553 9.24789 13.2553 8.69233C13.2553 8.13677 13.6899 7.70942 14.2548 7.70942Z" fill="#0000EE"/>
<path d="M29.1593 20.1882H13.2981C12.9505 19.1198 11.9076 18.3506 10.6908 18.3506C9.16987 18.3506 7.95312 19.5472 7.95312 21.0429C7.95312 22.5387 9.16987 23.7352 10.6908 23.7352C11.9076 23.7352 12.907 22.966 13.2981 21.8976H29.1593C29.507 22.966 30.5499 23.7352 31.7666 23.7352C33.2876 23.7352 34.5043 22.5387 34.5043 21.0429C34.5043 19.5472 33.2876 18.3506 31.7666 18.3506C30.5499 18.3506 29.507 19.1198 29.1593 20.1882ZM10.7343 21.9831C10.1693 21.9831 9.73479 21.5557 9.73479 21.0002C9.73479 20.4446 10.1693 20.0173 10.7343 20.0173C11.2992 20.0173 11.7337 20.4446 11.7337 21.0002C11.7337 21.5557 11.2557 21.9831 10.7343 21.9831ZM32.7227 21.0429C32.7227 21.5985 32.2881 22.0258 31.7232 22.0258C31.1583 22.0258 30.7237 21.5985 30.7237 21.0429C30.7237 20.4874 31.1583 20.06 31.7232 20.06C32.2881 20.06 32.7227 20.4874 32.7227 21.0429Z" fill="#0000EE"/>
<path d="M38.7192 26.513C37.5025 26.513 36.503 27.2823 36.1119 28.3506H32.114L28.5941 24.248H13.8628L10.3429 28.3506H6.345C5.99736 27.2823 4.95443 26.513 3.73768 26.513C2.21675 26.513 1 27.7096 1 29.2054C1 30.7011 2.21675 31.8977 3.73768 31.8977C4.95443 31.8977 5.95391 31.1284 6.345 30.0601H11.1251L14.645 25.9575H27.8119L31.3318 30.0601H36.1119C36.4595 31.1284 37.5025 31.8977 38.7192 31.8977C40.2401 31.8977 41.4569 30.7011 41.4569 29.2054C41.4569 27.7096 40.2401 26.513 38.7192 26.513ZM3.73768 30.1883C3.17277 30.1883 2.73821 29.7609 2.73821 29.2054C2.73821 28.6498 3.17277 28.2224 3.73768 28.2224C4.21569 28.2224 4.56334 28.5216 4.6937 28.9489V29.4618C4.56334 29.8891 4.17224 30.1883 3.73768 30.1883ZM38.7192 30.1883C38.2412 30.1883 37.8936 29.8891 37.7632 29.4618V28.9489C37.8936 28.5216 38.2412 28.2224 38.7192 28.2224C39.2841 28.2224 39.7187 28.6498 39.7187 29.2054C39.7187 29.7609 39.2841 30.1883 38.7192 30.1883Z" fill="#0000EE"/>
<path d="M28.2034 30.6146C27.8123 30.6146 27.4647 30.7001 27.1171 30.8283L25.1181 28.3496H17.3396L15.3407 30.8283C14.993 30.7001 14.6454 30.6146 14.2543 30.6146C12.7334 30.6146 11.5166 31.8112 11.5166 33.3069C11.5166 34.8027 12.7334 35.9992 14.2543 35.9992C15.7752 35.9992 16.992 34.8027 16.992 33.3069C16.992 32.8368 16.8616 32.3667 16.6443 31.9821L18.1653 30.059H24.2925L25.8134 31.9821C25.5961 32.3667 25.4658 32.8368 25.4658 33.3069C25.4658 34.8027 26.6825 35.9992 28.2034 35.9992C29.7244 35.9992 30.9411 34.8027 30.9411 33.3069C30.9411 31.8112 29.7244 30.6146 28.2034 30.6146ZM14.2543 34.2898C13.6894 34.2898 13.2548 33.8625 13.2548 33.3069C13.2548 32.7514 13.6894 32.324 14.2543 32.324C14.8192 32.324 15.2538 32.7514 15.2538 33.3069C15.2538 33.8625 14.8192 34.2898 14.2543 34.2898ZM28.2034 34.2898C27.6385 34.2898 27.204 33.8625 27.204 33.3069C27.204 32.7514 27.6385 32.324 28.2034 32.324C28.7684 32.324 29.2029 32.7514 29.2029 33.3069C29.2029 33.8625 28.7684 34.2898 28.2034 34.2898Z" fill="#0000EE"/>
<path d="M3.73768 15.5302C4.95443 15.5302 5.95391 14.7609 6.345 13.6925H10.3429L13.8628 17.7951H28.6376L32.1575 13.6925H36.1553C36.503 14.7609 37.5459 15.5302 38.7627 15.5302C40.2836 15.5302 41.5004 14.3336 41.5004 12.8378C41.5004 11.3421 40.2836 10.1455 38.7627 10.1455C37.5459 10.1455 36.5464 10.9147 36.1553 11.9831H31.3753L27.8554 16.0857H14.645L11.1251 11.9831H6.345C5.99736 10.9147 4.95443 10.1455 3.73768 10.1455C2.21675 10.1455 1 11.3421 1 12.8378C1 14.3336 2.21675 15.5302 3.73768 15.5302ZM38.7192 11.8549C39.2841 11.8549 39.7187 12.2823 39.7187 12.8378C39.7187 13.3934 39.2841 13.8208 38.7192 13.8208C38.2412 13.8208 37.8936 13.5216 37.7632 13.0943V12.5814C37.8936 12.1541 38.2847 11.8549 38.7192 11.8549ZM3.73768 11.8549C4.21569 11.8549 4.56334 12.1541 4.6937 12.5814V13.0943C4.56334 13.5216 4.21569 13.8208 3.73768 13.8208C3.17277 13.8208 2.73821 13.3934 2.73821 12.8378C2.73821 12.2823 3.17277 11.8549 3.73768 11.8549Z" fill="#0000EE"/>
</svg>
