<svg width="30" height="32" viewBox="0 0 30 32" fill="none" xmlns="http://www.w3.org/2000/svg">
<path d="M14.985 0.647461C6.705 0.647461 0 7.54162 0 16.0362C0 24.5308 6.705 31.4249 14.985 31.4249C23.28 31.4249 30 24.5308 30 16.0362C30 7.54162 23.28 0.647461 14.985 0.647461ZM25.38 9.8807H20.955C20.4855 7.97474 19.7904 6.13493 18.885 4.40231C21.6212 5.36873 23.9268 7.31344 25.38 9.8807ZM15 3.78676C16.245 5.63341 17.22 7.68012 17.865 9.8807H12.135C12.78 7.68012 13.755 5.63341 15 3.78676ZM3.39 19.1139C3.15 18.1291 3 17.098 3 16.0362C3 14.9744 3.15 13.9433 3.39 12.9585H8.46C8.34 13.9741 8.25 14.9898 8.25 16.0362C8.25 17.0826 8.34 18.0983 8.46 19.1139H3.39ZM4.62 22.1917H9.045C9.525 24.1153 10.215 25.9619 11.115 27.6701C8.37595 26.709 6.06875 24.7629 4.62 22.1917ZM9.045 9.8807H4.62C6.06875 7.30952 8.37595 5.36345 11.115 4.40231C10.2096 6.13493 9.51447 7.97474 9.045 9.8807ZM15 28.2856C13.755 26.439 12.78 24.3923 12.135 22.1917H17.865C17.22 24.3923 16.245 26.439 15 28.2856ZM18.51 19.1139H11.49C11.355 18.0983 11.25 17.0826 11.25 16.0362C11.25 14.9898 11.355 13.9587 11.49 12.9585H18.51C18.645 13.9587 18.75 14.9898 18.75 16.0362C18.75 17.0826 18.645 18.0983 18.51 19.1139ZM18.885 27.6701C19.785 25.9619 20.475 24.1153 20.955 22.1917H25.38C23.9268 24.759 21.6212 26.7037 18.885 27.6701ZM21.54 19.1139C21.66 18.0983 21.75 17.0826 21.75 16.0362C21.75 14.9898 21.66 13.9741 21.54 12.9585H26.61C26.85 13.9433 27 14.9744 27 16.0362C27 17.098 26.85 18.1291 26.61 19.1139H21.54Z" fill="black"/>
</svg>
