<svg width="285" height="32" viewBox="0 0 285 32" fill="none" xmlns="http://www.w3.org/2000/svg">
<g clip-path="url(#clip0)">
<path d="M64.9408 23.6978L62.6673 28.2844H57.7266L71.0627 0.920898L79.9662 19.1893H74.962L71.0627 11.1497L67.1254 19.1893L64.9408 23.6978ZM84.4116 28.2844H79.4454L77.2481 23.7369H82.1889L84.4116 28.2844Z" fill="black"/>
<path d="M112.824 18.46L118.298 28.2848H113.192L105.457 14.5639L109.42 14.603C110.614 14.603 111.655 14.16 112.519 13.2739C113.421 12.3748 113.853 11.2803 113.853 10.0164C113.853 8.77848 113.421 7.72303 112.519 6.83697C111.655 5.95092 110.614 5.50789 109.42 5.50789H100.516L100.021 4.99971L97.7222 0.908203H109.433C111.871 0.908203 113.967 1.79426 115.707 3.57941C117.447 5.39061 118.311 7.51455 118.311 10.0164C118.311 11.9318 117.815 13.6388 116.748 15.1763C115.694 16.7139 114.386 17.8085 112.824 18.46Z" fill="black"/>
<path d="M150.203 23.6978L145.771 28.2844V0.920898L150.203 5.4424V23.6978Z" fill="black"/>
<path d="M179.048 24.2454C177.841 22.9815 176.876 21.5481 176.177 19.8672C175.479 18.1863 175.11 16.4403 175.11 14.603C175.11 12.7267 175.479 10.9415 176.177 9.2606C176.876 7.61879 177.841 6.18546 179.048 4.94758C180.28 3.68365 181.677 2.71941 183.315 2.00275C184.916 1.28608 186.656 0.908203 188.485 0.908203C190.314 0.908203 192.054 1.24699 193.654 1.96365C195.254 2.68032 196.69 3.67062 197.922 4.93455L194.759 8.11394C192.993 6.32879 190.885 5.48183 188.485 5.48183C187.253 5.48183 186.084 5.71637 185.017 6.1594C183.912 6.64152 182.985 7.29303 182.185 8.14C181.385 8.96091 180.75 9.92515 180.28 11.0197C179.81 12.1533 179.581 13.313 179.581 14.5769C179.581 15.8409 179.81 17.0006 180.28 18.1342C180.75 19.2288 181.385 20.193 182.21 21.0139C183.01 21.8739 183.95 22.5254 185.017 22.9945C186.122 23.4375 187.253 23.6721 188.485 23.6721L193.654 27.1902C192.054 27.9069 190.314 28.2457 188.485 28.2457C186.656 28.2457 184.916 27.8678 183.315 27.1512C181.677 26.4736 180.28 25.4833 179.048 24.2454Z" fill="black"/>
<path d="M223.019 23.6978L220.745 28.2844H215.805L229.141 0.920898L238.044 19.1893H233.04L229.141 11.1497L225.203 19.1893L223.019 23.6978ZM242.49 28.2844H237.524L235.326 23.7369H240.267L242.49 28.2844Z" fill="black"/>
<path d="M271.232 0.908203V1.66396V17.5088L266.799 22.0954V1.66396V0.908203H271.232ZM284.568 23.6981V28.2848H266.799L271.232 23.6981H284.568Z" fill="black"/>
<path d="M17.1211 0.647461C17.2354 0.673521 17.337 0.699582 17.4513 0.738673C18.2388 0.960187 18.7087 1.80715 18.4801 2.62806C18.4166 2.86261 18.4547 3.01897 18.5563 3.21442C20.8425 7.44926 23.0779 11.7102 25.4403 15.9059C27.6757 19.8801 30.0254 23.7762 32.3243 27.7113C32.5402 28.0762 32.7434 28.3628 33.1879 28.4931C33.7976 28.6625 34.0262 29.2228 34.1405 29.8222C34.1405 29.8743 34.1405 29.9134 34.1405 29.9656C34.1278 29.9916 34.1024 30.0307 34.1024 30.0568C33.9373 31.438 32.2608 31.8419 31.486 30.8646C31.4225 30.7734 31.2447 30.7474 31.1177 30.7474C22.3158 30.5389 13.5139 30.4346 4.69938 30.7213C4.31835 30.7343 3.95002 30.7343 3.56898 30.7343C3.11174 30.7343 2.69261 30.7474 2.29887 31.1252C1.84163 31.5552 1.23198 31.5162 0.698535 31.1774C0.165089 30.8386 -0.0762322 30.3304 0.0126755 29.6919C0.0888821 29.0534 0.457214 28.6234 1.05417 28.441C1.29549 28.3759 1.4352 28.2586 1.56221 28.0371C3.91191 24.0107 6.32512 20.0235 8.61132 15.958C10.6435 12.3747 12.5487 8.71319 14.5046 5.09078C14.8603 4.43927 15.2159 3.78775 15.5588 3.12321C15.6223 3.00594 15.6604 2.83655 15.635 2.70624C15.3937 1.68988 15.8636 0.908066 16.8543 0.699582C16.8924 0.686552 16.9432 0.660491 16.9813 0.647461C17.0321 0.647461 17.0703 0.647461 17.1211 0.647461ZM17.9847 5.74229C17.9466 5.75532 17.9212 5.76835 17.8831 5.78138C17.8831 5.89866 17.8831 6.0029 17.8831 6.12017C17.8831 10.4071 17.8831 14.6941 17.8831 18.981C17.8831 19.2416 17.9466 19.4241 18.1244 19.6326C18.3023 19.815 18.3658 20.0886 18.4928 20.3232C18.569 20.4535 18.6452 20.6229 18.7595 20.688C22.4555 22.8901 26.1642 25.0792 29.873 27.2683C29.9238 27.3074 30 27.3204 30.1524 27.3725C25.834 20.245 21.7951 13.0653 17.9847 5.74229ZM16.1685 5.78138C16.1304 5.76835 16.105 5.75532 16.0669 5.75532C12.2565 13.0783 8.21759 20.245 3.98812 27.3204C4.12783 27.2943 4.22944 27.2292 4.33105 27.1771C7.92546 25.0531 11.5199 22.9162 15.127 20.8053C15.3937 20.6489 15.6096 20.5056 15.6731 20.1538C15.6985 19.9713 15.8255 19.7759 15.9653 19.6456C16.1558 19.4632 16.1812 19.2677 16.1812 19.0201C16.1812 14.7201 16.1812 10.4202 16.1812 6.12017C16.1685 6.01593 16.1685 5.89866 16.1685 5.78138ZM29.2252 28.9753C29.1363 28.871 29.1236 28.8449 29.0982 28.8319C25.3387 26.6037 21.5918 24.3886 17.8323 22.1604C17.3116 22.1474 16.7908 22.1344 16.2828 22.1213C16.2574 22.1213 16.2193 22.1474 16.1939 22.1735C12.4725 24.3756 8.76373 26.5647 5.05501 28.7668C4.99151 28.8059 4.9407 28.858 4.81369 28.9622C12.9932 28.7146 21.0711 28.7146 29.2252 28.9753Z" fill="black"/>
</g>
<defs>
<clipPath id="clip0">
<rect width="284.568" height="30.7775" fill="white" transform="translate(0 0.647461)"/>
</clipPath>
</defs>
</svg>
