<svg width="32" height="32" viewBox="0 0 32 32" fill="none" xmlns="http://www.w3.org/2000/svg">
<path d="M16.0429 3.2002C16.1358 3.22096 16.2183 3.24172 16.3111 3.27287C16.9507 3.44936 17.3324 4.12417 17.1467 4.77822C17.0951 4.96509 17.1261 5.08967 17.2086 5.2454C19.0655 8.61946 20.881 12.0143 22.7998 15.3572C24.6154 18.5236 26.5238 21.6278 28.391 24.763C28.5663 25.0537 28.7314 25.2821 29.0925 25.3859C29.5876 25.5209 29.7733 25.9673 29.8661 26.4449C29.8661 26.4864 29.8661 26.5176 29.8661 26.5591C29.8558 26.5798 29.8352 26.611 29.8352 26.6318C29.7011 27.7322 28.3394 28.054 27.7101 27.2754C27.6586 27.2027 27.5141 27.182 27.411 27.182C20.2621 27.0159 13.1132 26.9328 5.95402 27.1612C5.64454 27.1716 5.34538 27.1716 5.03591 27.1716C4.66454 27.1716 4.32411 27.182 4.00432 27.4831C3.63295 27.8256 3.13779 27.7945 2.70453 27.5246C2.27126 27.2547 2.07526 26.8498 2.14747 26.3411C2.20936 25.8324 2.50852 25.4898 2.99337 25.3444C3.18937 25.2925 3.30284 25.1991 3.406 25.0226C5.31443 21.8146 7.27444 18.6378 9.1313 15.3987C10.7818 12.5437 12.3292 9.62648 13.9178 6.74036C14.2067 6.22128 14.4955 5.70219 14.7741 5.17272C14.8256 5.07929 14.8566 4.94433 14.836 4.84051C14.64 4.03073 15.0216 3.40783 15.8263 3.24172C15.8572 3.23134 15.8985 3.21058 15.9294 3.2002C15.9707 3.2002 16.0016 3.2002 16.0429 3.2002ZM16.7444 7.25945C16.7134 7.26983 16.6928 7.28021 16.6619 7.2906C16.6619 7.38403 16.6619 7.46708 16.6619 7.56052C16.6619 10.9761 16.6619 14.3917 16.6619 17.8073C16.6619 18.0149 16.7134 18.1603 16.8579 18.3264C17.0023 18.4717 17.0539 18.6897 17.157 18.8766C17.2189 18.9804 17.2808 19.1154 17.3737 19.1673C20.3756 20.9218 23.3878 22.6659 26.4 24.4101C26.4413 24.4412 26.5032 24.4516 26.627 24.4931C23.1196 18.8143 19.8391 13.094 16.7444 7.25945ZM15.2692 7.2906C15.2383 7.28021 15.2176 7.26983 15.1867 7.26983C12.0919 13.1044 8.8115 18.8143 5.37633 24.4516C5.4898 24.4308 5.57233 24.3789 5.65486 24.3374C8.57424 22.6452 11.4936 20.9426 14.4233 19.2607C14.64 19.1361 14.8153 19.0219 14.8669 18.7416C14.8875 18.5963 14.9907 18.4406 15.1042 18.3368C15.2589 18.1914 15.2795 18.0357 15.2795 17.8384C15.2795 14.4125 15.2795 10.9865 15.2795 7.56052C15.2692 7.47747 15.2692 7.38403 15.2692 7.2906ZM25.8739 25.7701C25.8017 25.687 25.7914 25.6663 25.7708 25.6559C22.7173 23.8806 19.6741 22.1157 16.6206 20.3404C16.1976 20.33 15.7747 20.3197 15.3621 20.3093C15.3414 20.3093 15.3105 20.33 15.2899 20.3508C12.2673 22.1053 9.25509 23.8494 6.24286 25.604C6.19128 25.6351 6.15002 25.6766 6.04686 25.7597C12.6903 25.5624 19.2511 25.5624 25.8739 25.7701Z" fill="black"/>
</svg>
