<svg width="30" height="32" viewBox="0 0 30 32" fill="none" xmlns="http://www.w3.org/2000/svg">
<path d="M15 0.647461C6.72 0.647461 0 7.54162 0 16.0362C0 24.5308 6.72 31.4249 15 31.4249C23.28 31.4249 30 24.5308 30 16.0362C30 7.54162 23.28 0.647461 15 0.647461ZM15 5.26408C17.49 5.26408 19.5 7.32617 19.5 9.8807C19.5 12.4352 17.49 14.4973 15 14.4973C12.51 14.4973 10.5 12.4352 10.5 9.8807C10.5 7.32617 12.51 5.26408 15 5.26408ZM15 27.1161C11.25 27.1161 7.935 25.1463 6 22.1609C6.045 19.0986 12 17.4212 15 17.4212C17.985 17.4212 23.955 19.0986 24 22.1609C22.065 25.1463 18.75 27.1161 15 27.1161Z" fill="black"/>
</svg>
