<svg width="190" height="62" viewBox="0 0 190 62" fill="none" xmlns="http://www.w3.org/2000/svg">
<g clip-path="url(#clip0)">
<path d="M23.4003 0.00634766H25.0899C30.9556 0.133832 36.7258 2.49228 40.8701 6.66738C39.3399 8.22906 37.7778 9.72699 36.2795 11.2887C33.9523 9.18519 31.1469 7.55977 28.0865 6.98609C23.5597 6.02996 18.6821 6.89048 14.8885 9.47203C10.7442 12.1811 7.93885 16.7705 7.33314 21.6786C6.66368 26.523 8.03449 31.6224 11.1905 35.3831C14.2191 39.0483 18.8415 41.343 23.6234 41.5024C28.0865 41.7573 32.7409 40.3869 35.9925 37.2635C38.5429 35.0644 39.7224 31.718 40.105 28.4671C34.813 28.4671 29.5211 28.499 24.2291 28.4671V21.9017H46.5127C47.6603 28.9452 46.0026 36.8811 40.6469 41.9167C37.0764 45.4862 32.1352 47.5897 27.0982 48.004C22.2207 48.4821 17.1838 47.5578 12.8482 45.1994C7.65194 42.4266 3.50764 37.7416 1.46737 32.2279C-0.445381 27.1604 -0.47726 21.4236 1.30797 16.3243C2.93381 11.6711 6.05798 7.55977 10.0748 4.69138C13.9321 1.85486 18.6184 0.293186 23.4003 0.00634766Z" fill="#3780FF"/>
<path d="M151.234 1.6626H158.057V47.1743C155.793 47.1743 153.498 47.2062 151.234 47.1425C151.266 32.0038 151.234 16.8332 151.234 1.6626Z" fill="#38B137"/>
<path d="M61.6855 17.439C65.8936 16.6422 70.4523 17.5346 73.9272 20.0524C77.0832 22.2834 79.2829 25.7892 79.9523 29.6137C80.8131 34.0438 79.7292 38.8881 76.86 42.3939C73.7678 46.3141 68.699 48.4176 63.7577 48.0989C59.2308 47.8439 54.8315 45.581 52.1537 41.884C49.1251 37.8045 48.3919 32.1952 50.0496 27.4146C51.7074 22.2834 56.3936 18.3632 61.6855 17.439ZM62.6419 23.4945C60.9204 23.9406 59.3265 24.9286 58.1788 26.331C55.0865 30.028 55.2778 36.0516 58.6889 39.4937C60.6335 41.4697 63.5664 42.3939 66.2761 41.8521C68.7946 41.4059 70.9943 39.7168 72.2057 37.4858C74.3097 33.6932 73.704 28.4663 70.4842 25.5023C68.4121 23.5901 65.3835 22.7933 62.6419 23.4945Z" fill="#FA3913"/>
<path d="M95.4783 17.4389C100.292 16.5146 105.552 17.8532 109.154 21.2315C115.02 26.4902 115.658 36.3384 110.653 42.3939C107.624 46.2184 102.715 48.3218 97.8692 48.0988C93.2467 47.9713 88.688 45.6766 85.9464 41.8839C82.8541 37.7088 82.1846 31.972 83.938 27.0958C85.6913 22.1239 90.282 18.3313 95.4783 17.4389ZM96.4347 23.4944C94.7132 23.9406 93.1192 24.9286 91.9716 26.299C88.9112 29.9323 89.0387 35.8603 92.3222 39.3342C94.2669 41.4059 97.2954 42.4257 100.101 41.852C102.587 41.374 104.819 39.7167 106.03 37.4857C108.102 33.6612 107.497 28.4344 104.245 25.4704C102.173 23.5581 99.1444 22.7932 96.4347 23.4944Z" fill="#FCBD06"/>
<path d="M124.138 19.2874C127.804 16.9927 132.682 16.3553 136.635 18.3313C137.878 18.8731 138.898 19.7973 139.886 20.7216C139.918 19.8611 139.886 18.9687 139.918 18.0763C142.054 18.1082 144.19 18.0763 146.358 18.1082V46.2184C146.326 50.4572 145.242 54.951 142.182 58.0425C138.834 61.4527 133.702 62.5045 129.079 61.8033C124.138 61.0703 119.834 57.4688 117.922 52.9113C119.834 51.987 121.843 51.254 123.819 50.3935C124.935 53.0069 127.199 55.2379 130.036 55.7478C132.873 56.2577 136.157 55.5566 138.006 53.1981C139.982 50.7759 139.982 47.4614 139.886 44.4974C138.42 45.9316 136.73 47.2064 134.69 47.6845C130.259 48.9274 125.381 47.3976 121.97 44.4017C118.527 41.4059 116.487 36.7846 116.678 32.1952C116.774 27.0002 119.707 21.9964 124.138 19.2874ZM130.737 23.3669C128.792 23.6856 126.975 24.7692 125.732 26.2672C122.735 29.8367 122.735 35.5416 125.764 39.0474C127.485 41.119 130.259 42.2664 132.937 41.9795C135.455 41.7246 137.782 40.131 139.026 37.9319C141.13 34.203 140.779 29.1355 137.942 25.8847C136.188 23.8768 133.383 22.8888 130.737 23.3669Z" fill="#3780FF"/>
<path d="M166.25 20.9132C170.075 17.3436 175.973 16.1325 180.882 18.0129C185.537 19.7658 188.501 24.1959 190 28.7534C183.082 31.6218 176.196 34.4584 169.278 37.3267C170.234 39.1434 171.701 40.8007 173.677 41.47C176.451 42.458 179.766 42.1074 182.094 40.2589C183.018 39.5577 183.751 38.6335 184.453 37.7411C186.206 38.9203 187.959 40.0676 189.713 41.2469C187.226 44.9758 183.05 47.5892 178.555 48.0035C173.582 48.6091 168.29 46.6968 165.07 42.8086C159.778 36.6893 160.288 26.4269 166.25 20.9132ZM169.661 26.8093C168.577 28.371 168.13 30.2833 168.162 32.1636C172.785 30.2514 177.407 28.3391 182.03 26.395C181.265 24.6102 179.416 23.5266 177.535 23.2398C174.506 22.698 171.35 24.3234 169.661 26.8093Z" fill="#FA3913"/>
</g>
<defs>
<clipPath id="clip0">
<rect width="190" height="62" fill="white"/>
</clipPath>
</defs>
</svg>
