<svg width="261" height="56" viewBox="0 0 261 56" fill="none" xmlns="http://www.w3.org/2000/svg">
<path d="M189.984 46.5007V27.1973H195.389V42.5215H203.435V46.5007H189.984Z" fill="black"/>
<path d="M213.363 39.7701C213.283 39.7701 213.203 39.7701 213.043 39.7701C212.922 39.7701 212.802 39.7701 212.722 39.7701C211.561 39.7701 210.681 39.9818 210.08 40.3204C209.48 40.7014 209.2 41.2517 209.2 41.9714C209.2 42.5217 209.36 42.945 209.72 43.326C210.08 43.6646 210.521 43.834 211.041 43.834C211.802 43.834 212.402 43.5377 212.802 42.9873C213.203 42.437 213.403 41.5904 213.403 40.4898C213.403 40.3204 213.403 40.1934 213.403 40.1088C213.403 39.9394 213.363 39.8548 213.363 39.7701ZM213.603 46.5009C213.563 46.2892 213.563 46.0352 213.523 45.6966C213.483 45.3579 213.483 44.9769 213.443 44.5536C213.043 45.2733 212.482 45.8659 211.722 46.2469C210.961 46.6279 210.08 46.8396 209.039 46.8396C207.638 46.8396 206.518 46.4162 205.677 45.6119C204.836 44.7653 204.516 43.707 204.556 42.3524C204.556 40.5321 205.076 39.4314 206.357 38.5425C207.638 37.6958 209.56 37.2725 212.042 37.2725C212.402 37.2725 212.682 37.2725 212.882 37.2725C213.083 37.2725 213.243 37.2725 213.403 37.2725V36.4682C213.403 35.7909 213.243 35.2829 212.962 34.9019C212.682 34.5209 212.282 34.3516 211.762 34.3516C211.281 34.3516 210.881 34.5209 210.561 34.8596C210.24 35.1982 210.08 35.6639 210.08 36.2142V36.4682H205.317C205.357 34.9019 205.877 33.759 206.958 32.997C208.039 32.235 209.68 31.854 211.842 31.854C214.163 31.854 215.805 32.2773 216.765 33.124C217.726 33.9706 218.207 35.4099 218.207 37.3995V43.2837V45.1039V46.5009H213.603Z" fill="black"/>
<path d="M220.008 46.5009V35.2829V34.0553V32.1927H224.852L224.892 34.2246C225.292 33.505 225.892 32.9123 226.653 32.489C227.414 32.0657 228.294 31.854 229.215 31.854C230.856 31.854 232.097 32.3197 232.978 33.2086C233.818 34.1399 234.259 35.4522 234.259 37.2302V46.5009H229.255V39.1775C229.255 37.6112 229.095 36.5105 228.775 36.0026C228.454 35.4522 227.934 35.1982 227.173 35.1982C226.453 35.1982 225.892 35.4522 225.532 36.0026C225.132 36.5105 224.932 37.2725 224.932 38.2461V46.5432H220.008V46.5009Z" fill="black"/>
<path d="M240.824 39.2619C240.824 40.7435 241.024 41.8442 241.425 42.5638C241.825 43.2835 242.425 43.6221 243.266 43.6221C244.027 43.6221 244.627 43.2411 245.067 42.4791C245.508 41.7172 245.748 40.6165 245.748 39.2619C245.748 37.8649 245.508 36.8067 245.067 36.0447C244.627 35.2827 243.987 34.9017 243.146 34.9017C242.385 34.9017 241.825 35.2827 241.425 36.0023C241.024 36.7643 240.824 37.8226 240.824 39.2619ZM245.828 46.5007L245.788 44.6381C245.187 45.4001 244.507 45.9504 243.786 46.3314C243.066 46.7123 242.185 46.8817 241.224 46.8817C239.423 46.8817 238.062 46.2467 237.061 44.8921C236.06 43.5798 235.58 41.7172 235.58 39.3466C235.58 36.9336 236.1 35.071 237.101 33.7587C238.102 32.4464 239.543 31.8115 241.425 31.8115C242.305 31.8115 243.106 31.9808 243.826 32.3194C244.547 32.6581 245.147 33.1661 245.628 33.8011V27.1973H250.632V46.5007H245.828Z" fill="black"/>
<path d="M60.4452 39.1349V46.5007H55.041V27.1973H60.4452V34.817H66.8501V27.1973H72.2542V46.5007H66.8501V39.1349H60.4452Z" fill="black"/>
<path d="M78.7401 39.3041C78.7401 40.9128 78.9403 42.0981 79.3406 42.8177C79.7409 43.5374 80.3814 43.876 81.262 43.876C82.1427 43.876 82.7832 43.5374 83.1835 42.8177C83.5838 42.0981 83.784 40.9551 83.784 39.3041C83.784 37.6955 83.5838 36.5102 83.1835 35.7906C82.7832 35.0709 82.1427 34.7323 81.262 34.7323C80.3814 34.7323 79.7409 35.0709 79.3406 35.7906C78.9403 36.5102 78.7401 37.6532 78.7401 39.3041ZM73.4961 39.3041C73.4961 36.8912 74.1766 35.0286 75.5377 33.7163C76.8987 32.404 78.8202 31.769 81.3021 31.769C83.784 31.769 85.7054 32.404 87.0665 33.7163C88.4275 35.0286 89.108 36.8912 89.108 39.3041C89.108 41.7171 88.4275 43.5797 87.0665 44.892C85.7054 46.2043 83.784 46.8393 81.3021 46.8393C78.7801 46.8393 76.8587 46.1619 75.5377 44.892C74.1366 43.5797 73.4961 41.7171 73.4961 39.3041Z" fill="black"/>
<path d="M122.693 46.5007V27.1973H127.617V38.4576L131.98 32.1501H137.345L132.981 38.6269L137.825 46.5007H132.061L127.617 38.7116V46.5007H122.693Z" fill="black"/>
<path d="M142.51 39.3041C142.51 40.9128 142.71 42.0981 143.11 42.8177C143.51 43.5374 144.151 43.876 145.032 43.876C145.912 43.876 146.553 43.5374 146.953 42.8177C147.353 42.0981 147.553 40.9551 147.553 39.3041C147.553 37.6955 147.353 36.5102 146.953 35.7906C146.553 35.0709 145.912 34.7323 145.032 34.7323C144.151 34.7323 143.51 35.0709 143.11 35.7906C142.71 36.5102 142.51 37.6532 142.51 39.3041ZM137.266 39.3041C137.266 36.8912 137.946 35.0286 139.307 33.7163C140.668 32.404 142.59 31.769 145.072 31.769C147.553 31.769 149.475 32.404 150.836 33.7163C152.197 35.0286 152.878 36.8912 152.878 39.3041C152.878 41.7171 152.197 43.5797 150.836 44.892C149.475 46.2043 147.553 46.8393 145.072 46.8393C142.55 46.8393 140.628 46.1619 139.307 44.892C137.946 43.5797 137.266 41.7171 137.266 39.3041Z" fill="black"/>
<path d="M174.774 38.881C174.774 40.1933 174.974 41.2092 175.375 41.8865C175.775 42.5639 176.376 42.9025 177.176 42.9025C177.937 42.9025 178.537 42.5639 178.977 41.8442C179.418 41.1246 179.618 40.1509 179.618 38.881C179.618 37.611 179.418 36.6374 178.977 35.9177C178.577 35.1981 177.977 34.8594 177.216 34.8594C176.376 34.8594 175.775 35.1981 175.375 35.8754C174.974 36.5104 174.774 37.5263 174.774 38.881ZM180.058 32.1502H184.582V34.0128V35.4944V45.3154C184.582 46.6277 184.462 47.6014 184.181 48.3633C183.901 49.083 183.461 49.718 182.86 50.2683C182.14 50.9456 181.259 51.4536 180.178 51.7922C179.138 52.1309 177.937 52.3002 176.576 52.3002C174.654 52.3002 173.093 51.8769 171.972 50.9879C170.851 50.099 170.291 48.8713 170.251 47.3474H174.934V47.432C174.934 47.94 175.135 48.3634 175.535 48.702C175.935 49.0407 176.416 49.21 177.056 49.21C177.977 49.21 178.697 48.956 179.098 48.4057C179.538 47.8977 179.738 47.0511 179.738 45.9081V44.0878C179.218 44.7651 178.617 45.2731 177.897 45.6118C177.176 45.9504 176.376 46.1198 175.415 46.1198C173.533 46.1198 172.092 45.4848 171.091 44.2995C170.091 43.0718 169.57 41.2939 169.57 39.008C169.57 36.7644 170.051 34.9864 171.051 33.7165C172.052 32.4465 173.453 31.8115 175.215 31.8115C176.215 31.8115 177.096 31.9808 177.857 32.3618C178.617 32.7428 179.298 33.3355 179.858 34.0975L180.058 32.1502Z" fill="black"/>
<path d="M154.119 46.5004V35.2824V34.0548V32.1922H158.963L159.003 34.2241C159.403 33.5045 160.004 32.9118 160.764 32.4885C161.525 32.0652 162.365 31.8535 163.326 31.8535C164.967 31.8535 166.248 32.3192 167.089 33.2081C167.93 34.1395 168.37 35.4517 168.37 37.2297V46.5004H163.366V39.177C163.366 37.6107 163.206 36.51 162.926 36.0021C162.606 35.4517 162.085 35.1978 161.325 35.1978C160.604 35.1978 160.044 35.4517 159.683 36.0021C159.283 36.51 159.083 37.272 159.083 38.2457V46.5427H154.119V46.5004Z" fill="black"/>
<path d="M90.2695 46.4599V35.2419V34.0142V32.1516H95.1132L95.1533 34.1836C95.5536 33.4639 96.154 32.8713 96.9146 32.448C97.6752 32.0246 98.5559 31.813 99.4766 31.813C101.118 31.813 102.399 32.2786 103.239 33.1676C104.08 34.0989 104.52 35.4112 104.52 37.1892V46.4599H99.5166V39.1788C99.5166 37.5701 99.3565 36.5118 99.0362 36.0039C98.716 35.4535 98.1956 35.1996 97.435 35.1996C96.7145 35.1996 96.154 35.4535 95.7938 36.0039C95.3935 36.5118 95.1933 37.2738 95.1933 38.2475V46.5445H90.2695V46.4599Z" fill="black"/>
<path d="M111.006 38.881C111.006 40.1933 111.206 41.2092 111.606 41.8865C112.006 42.5639 112.607 42.9025 113.408 42.9025C114.168 42.9025 114.769 42.5639 115.209 41.8442C115.649 41.1246 115.849 40.1509 115.849 38.881C115.849 37.611 115.649 36.6374 115.209 35.9177C114.769 35.1981 114.208 34.8594 113.448 34.8594C112.607 34.8594 112.006 35.1981 111.606 35.8754C111.206 36.5104 111.006 37.5263 111.006 38.881ZM116.29 32.1502H120.813V34.0128V35.4944V45.3154C120.813 46.6277 120.693 47.6014 120.413 48.3633C120.133 49.083 119.692 49.718 119.092 50.2683C118.371 50.9456 117.491 51.4536 116.41 51.7922C115.369 52.1309 114.168 52.3002 112.807 52.3002C110.886 52.3002 109.324 51.8769 108.204 50.9879C107.083 50.099 106.522 48.8713 106.482 47.3474H111.166V47.432C111.166 47.94 111.366 48.3634 111.766 48.702C112.167 49.0407 112.647 49.21 113.247 49.21C114.168 49.21 114.889 48.956 115.289 48.4057C115.729 47.8977 115.93 47.0511 115.93 45.9081V44.0878C115.409 44.7651 114.809 45.2731 114.088 45.6118C113.368 45.9504 112.527 46.1198 111.606 46.1198C109.725 46.1198 108.284 45.4848 107.283 44.2995C106.282 43.0718 105.762 41.2939 105.762 39.008C105.762 36.7644 106.282 34.9864 107.243 33.7165C108.244 32.4465 109.645 31.8115 111.406 31.8115C112.407 31.8115 113.287 31.9808 114.048 32.3618C114.809 32.7428 115.489 33.3355 116.05 34.0975L116.29 32.1502Z" fill="black"/>
<path d="M22.618 6.79346H17.0137V22.3716H17.0537H28.1822V19.6624H22.618V6.79346Z" fill="black"/>
<path d="M16.0115 6.79346H10.4473V26.0969H28.1809V23.4299H16.0115V6.79346Z" fill="black"/>
<path d="M17.0537 30.9229H17.0137V46.501H22.618V33.6321H28.1822V30.9229H17.0537Z" fill="black"/>
<path d="M10.4473 27.1973V46.5007H16.0115V29.8642H28.1809V27.1973H10.4473Z" fill="black"/>
<path d="M40.3522 22.3716V6.79346H34.7479V19.6624H29.1836V22.3716H40.3522Z" fill="black"/>
<path d="M41.3529 6.79346V23.4299H29.1836V26.0969H46.9172V6.79346H41.3529Z" fill="black"/>
<path d="M29.1836 30.9229V33.6321H34.7479V46.501H40.3522V30.9229H29.1836Z" fill="black"/>
<path d="M29.1836 27.1973V29.8642H41.3529V46.5007H46.9172V27.1973H29.1836Z" fill="black"/>
</svg>
